<svg xmlns="http://www.w3.org/2000/svg" viewBox="0 0 1200 340" role="img" aria-label="N1X Cortex — the cited knowledge graph, for you and your agents">
  <rect width="1200" height="340" fill="#292929"/>
  <g transform="translate(121.21 68.00)"><path d="M120.38 100L106.86 100L106.86 27.20L132.97 27.20L147.42 90.64L149.30 90.64L149.30 27.20L162.82 27.20L162.82 100L136.71 100L122.26 36.56L120.38 36.56L120.38 100M225.82 100L212.51 100L212.51 36.98L210.64 36.98L200.86 60.06L186.93 60.06L201.80 27.20L225.82 27.20L225.82 100M266.58 100L250.98 100L272.30 63.29L251.18 27.20L266.78 27.20L281.24 53.51L283.11 53.51L297.57 27.20L313.17 27.20L292.06 63.29L313.38 100L297.78 100L283.11 73.06L281.24 73.06L266.58 100M408.61 101.46Q395.09 101.46 387.18 93.92Q379.28 86.38 379.28 72.34L379.28 54.86Q379.28 40.82 387.18 33.28Q395.09 25.74 408.61 25.74Q422.02 25.74 429.36 33.08Q436.69 40.41 436.69 53.20L436.69 53.82L423.17 53.82L423.17 52.78Q423.17 46.34 419.58 42.18Q415.99 38.02 408.61 38.02Q401.33 38.02 397.17 42.49Q393.01 46.96 393.01 54.66L393.01 72.54Q393.01 80.14 397.17 84.66Q401.33 89.18 408.61 89.18Q415.99 89.18 419.58 84.97Q423.17 80.76 423.17 74.42L423.17 72.54L436.69 72.54L436.69 74Q436.69 86.79 429.36 94.12Q422.02 101.46 408.61 101.46M492.21 101.46Q478.48 101.46 470.37 93.92Q462.26 86.38 462.26 72.34L462.26 54.86Q462.26 40.82 470.37 33.28Q478.48 25.74 492.21 25.74Q505.94 25.74 514.05 33.28Q522.16 40.82 522.16 54.86L522.16 72.34Q522.16 86.38 514.05 93.92Q505.94 101.46 492.21 101.46M492.21 89.18Q499.90 89.18 504.17 84.71Q508.43 80.24 508.43 72.75L508.43 54.45Q508.43 46.96 504.17 42.49Q499.90 38.02 492.21 38.02Q484.62 38.02 480.30 42.49Q475.98 46.96 475.98 54.45L475.98 72.75Q475.98 80.24 480.30 84.71Q484.62 89.18 492.21 89.18M563.95 100L550.22 100L550.22 27.20L581.84 27.20Q588.70 27.20 593.80 29.59Q598.90 31.98 601.70 36.35Q604.51 40.72 604.51 46.65L604.51 47.90Q604.51 54.45 601.39 58.50Q598.27 62.56 593.70 64.43L593.70 66.30Q597.86 66.51 600.14 69.16Q602.43 71.82 602.43 76.18L602.43 100L588.70 100L588.70 78.16Q588.70 75.66 587.40 74.10Q586.10 72.54 583.09 72.54L563.95 72.54L563.95 100M563.95 39.68L563.95 60.06L580.38 60.06Q585.27 60.06 588.03 57.41Q590.78 54.76 590.78 50.39L590.78 49.35Q590.78 44.98 588.08 42.33Q585.38 39.68 580.38 39.68L563.95 39.68M661.28 100L647.55 100L647.55 39.68L626.34 39.68L626.34 27.20L682.50 27.20L682.50 39.68L661.28 39.68L661.28 100M755.28 100L707.86 100L707.86 27.20L754.66 27.20L754.66 39.68L721.58 39.68L721.58 57.05L751.74 57.05L751.74 69.53L721.58 69.53L721.58 87.52L755.28 87.52L755.28 100M792.50 100L776.90 100L798.22 63.29L777.10 27.20L792.70 27.20L807.16 53.51L809.03 53.51L823.49 27.20L839.09 27.20L817.98 63.29L839.30 100L823.70 100L809.03 73.06L807.16 73.06" fill="#e5e5e5"/></g>
  <rect x="540" y="196" width="120" height="2" fill="#e5e5e5"/>
  <g transform="translate(-35.40 140.00)"><path d="M108.40 100L106.30 100L106.30 84.40L100.67 84.40L100.67 82.50L114.03 82.50L114.03 84.40L108.40 84.40L108.40 100M125.80 100L123.70 100L123.70 82.50L125.80 82.50L125.80 90.28L134 90.28L134 82.50L136.10 82.50L136.10 100L134 100L134 92.17L125.80 92.17L125.80 100M158 100L147.10 100L147.10 82.50L157.88 82.50L157.88 84.40L149.20 84.40L149.20 90.25L157.17 90.25L157.17 92.15L149.20 92.15L149.20 98.10L158 98.10L158 100M187.92 100.35Q184.80 100.35 182.95 98.54Q181.10 96.72 181.10 93.25L181.10 89.25Q181.10 85.78 182.95 83.96Q184.80 82.15 187.92 82.15Q191.03 82.15 192.69 83.88Q194.35 85.60 194.35 88.60L194.35 88.72L192.28 88.72L192.28 88.53Q192.28 86.55 191.21 85.29Q190.15 84.03 187.92 84.03Q185.70 84.03 184.45 85.39Q183.20 86.75 183.20 89.20L183.20 93.30Q183.20 95.75 184.45 97.11Q185.70 98.47 187.92 98.47Q190.15 98.47 191.21 97.21Q192.28 95.95 192.28 93.97L192.28 93.58L194.35 93.58L194.35 93.90Q194.35 96.90 192.69 98.63Q191.03 100.35 187.92 100.35M206.75 100L204.65 100L204.65 82.50L206.75 82.50L206.75 100M224.15 100L222.05 100L222.05 84.40L216.43 84.40L216.43 82.50L229.78 82.50L229.78 84.40L224.15 84.40L224.15 100M250.35 100L239.45 100L239.45 82.50L250.22 82.50L250.22 84.40L241.55 84.40L241.55 90.25L249.52 90.25L249.52 92.15L241.55 92.15L241.55 98.10L250.35 98.10L250.35 100M266.52 100L259.70 100L259.70 98.13L262.15 98.13L262.15 84.38L259.70 84.38L259.70 82.50L266.52 82.50Q269.97 82.50 271.86 84.25Q273.75 86 273.75 89.63L273.75 92.88Q273.75 96.53 271.86 98.26Q269.97 100 266.52 100M264.25 84.42L264.25 98.10L266.52 98.10Q269.05 98.10 270.36 96.86Q271.67 95.63 271.67 92.97L271.67 89.55Q271.67 86.90 270.36 85.66Q269.05 84.42 266.52 84.42L264.25 84.42M299.63 100L297.52 100L297.52 82.50L299.63 82.50L299.63 90.13L299.97 90.13L307.38 82.50L310.17 82.50L301.65 91.15L310.47 100L307.60 100L299.97 92.22L299.63 92.22L299.63 100M321.85 100L319.77 100L319.77 82.50L323.85 82.50L329.95 98.67L330.27 98.67L330.27 82.50L332.35 82.50L332.35 100L328.27 100L322.20 83.80L321.85 83.80L321.85 100M349.73 100.35Q346.60 100.35 344.74 98.54Q342.88 96.72 342.88 93.25L342.88 89.25Q342.88 85.78 344.74 83.96Q346.60 82.15 349.73 82.15Q352.88 82.15 354.74 83.96Q356.60 85.78 356.60 89.25L356.60 93.25Q356.60 96.72 354.74 98.54Q352.88 100.35 349.73 100.35M349.73 98.47Q352 98.47 353.25 97.11Q354.50 95.75 354.50 93.33L354.50 89.17Q354.50 86.75 353.25 85.39Q352 84.03 349.73 84.03Q347.48 84.03 346.23 85.39Q344.98 86.75 344.98 89.17L344.98 93.33Q344.98 95.75 346.23 97.11Q347.48 98.47 349.73 98.47M372.48 100L368.70 100L365.85 82.50L367.95 82.50L370.43 98.65L370.78 98.65L374 82.50L377.75 82.50L380.95 98.65L381.30 98.65L383.78 82.50L385.88 82.50L383.03 100L379.28 100L376.05 83.75L375.70 83.75L372.48 100M406.75 100L395.80 100L395.80 82.50L397.90 82.50L397.90 98.10L406.75 98.10L406.75 100M427.35 100L416.45 100L416.45 82.50L427.22 82.50L427.22 84.40L418.55 84.40L418.55 90.25L426.52 90.25L426.52 92.15L418.55 92.15L418.55 98.10L427.35 98.10L427.35 100M443.52 100L436.70 100L436.70 98.13L439.15 98.13L439.15 84.38L436.70 84.38L436.70 82.50L443.52 82.50Q446.97 82.50 448.86 84.25Q450.75 86 450.75 89.63L450.75 92.88Q450.75 96.53 448.86 98.26Q446.97 100 443.52 100M441.25 84.42L441.25 98.10L443.52 98.10Q446.05 98.10 447.36 96.86Q448.67 95.63 448.67 92.97L448.67 89.55Q448.67 86.90 447.36 85.66Q446.05 84.42 443.52 84.42L441.25 84.42M467.20 100.35Q465.25 100.35 463.76 99.54Q462.27 98.72 461.44 97.15Q460.60 95.58 460.60 93.25L460.60 89.25Q460.60 85.78 462.45 83.96Q464.30 82.15 467.42 82.15Q470.52 82.15 472.15 83.85Q473.77 85.55 473.77 88.40L473.77 88.53L471.70 88.53L471.70 88.35Q471.70 86.50 470.67 85.26Q469.65 84.03 467.42 84.03Q465.20 84.03 463.95 85.39Q462.70 86.75 462.70 89.20L462.70 93.30Q462.70 95.75 463.95 97.11Q465.20 98.47 467.45 98.47Q469.65 98.47 470.69 97.22Q471.72 95.97 471.72 93.90L471.72 93.47L466.42 93.47L466.42 91.67L473.77 91.67L473.77 100L471.87 100L471.87 98.10L471.52 98.10Q471.25 98.67 470.75 99.19Q470.25 99.70 469.40 100.03Q468.55 100.35 467.20 100.35M495.50 100L484.60 100L484.60 82.50L495.37 82.50L495.37 84.40L486.70 84.40L486.70 90.25L494.67 90.25L494.67 92.15L486.70 92.15L486.70 98.10L495.50 98.10L495.50 100M525.20 100.35Q523.25 100.35 521.76 99.54Q520.27 98.72 519.44 97.15Q518.60 95.58 518.60 93.25L518.60 89.25Q518.60 85.78 520.45 83.96Q522.30 82.15 525.43 82.15Q528.52 82.15 530.15 83.85Q531.77 85.55 531.77 88.40L531.77 88.53L529.70 88.53L529.70 88.35Q529.70 86.50 528.68 85.26Q527.65 84.03 525.43 84.03Q523.20 84.03 521.95 85.39Q520.70 86.75 520.70 89.20L520.70 93.30Q520.70 95.75 521.95 97.11Q523.20 98.47 525.45 98.47Q527.65 98.47 528.69 97.22Q529.73 95.97 529.73 93.90L529.73 93.47L524.43 93.47L524.43 91.67L531.77 91.67L531.77 100L529.88 100L529.88 98.10L529.52 98.10Q529.25 98.67 528.75 99.19Q528.25 99.70 527.40 100.03Q526.55 100.35 525.20 100.35M544.70 100L542.60 100L542.60 82.50L549.68 82.50Q551.30 82.50 552.54 83.06Q553.77 83.63 554.48 84.66Q555.18 85.70 555.18 87.15L555.18 87.42Q555.18 89.15 554.35 90.15Q553.52 91.15 552.40 91.50L552.40 91.85Q553.30 91.90 553.89 92.45Q554.48 93 554.48 94.13L554.48 100L552.40 100L552.40 94.38Q552.40 92.83 550.75 92.83L544.70 92.83L544.70 100M544.70 84.40L544.70 90.92L549.48 90.92Q551.18 90.92 552.13 90.09Q553.08 89.25 553.08 87.75L553.08 87.58Q553.08 86.05 552.15 85.22Q551.23 84.40 549.48 84.40L544.70 84.40M566.17 100L564 100L569.40 82.50L573.10 82.50L578.50 100L576.33 100L574.98 95.58L567.52 95.58L566.17 100M571.08 83.78L568.08 93.67L574.42 93.67L571.42 83.78L571.08 83.78M590.23 100L588.13 100L588.13 82.50L594.83 82.50Q596.38 82.50 597.63 83.10Q598.88 83.70 599.60 84.84Q600.33 85.97 600.33 87.58L600.33 87.90Q600.33 89.47 599.59 90.61Q598.85 91.75 597.60 92.35Q596.35 92.95 594.83 92.95L590.23 92.95L590.23 100M590.23 84.40L590.23 91.05L594.60 91.05Q596.27 91.05 597.25 90.21Q598.23 89.38 598.23 87.85L598.23 87.60Q598.23 86.08 597.26 85.24Q596.30 84.40 594.60 84.40L590.23 84.40M612.25 100L610.15 100L610.15 82.50L612.25 82.50L612.25 90.28L620.45 90.28L620.45 82.50L622.55 82.50L622.55 100L620.45 100L620.45 92.17L612.25 92.17L612.25 100M665.02 94.47L646.22 94.47L646.22 92.65L665.02 92.65L665.02 94.47M690.82 100L688.72 100L688.72 82.50L699.30 82.50L699.30 84.40L690.82 84.40L690.82 90.28L698.62 90.28L698.62 92.17L690.82 92.17L690.82 100M715.40 100.35Q712.27 100.35 710.41 98.54Q708.55 96.72 708.55 93.25L708.55 89.25Q708.55 85.78 710.41 83.96Q712.27 82.15 715.40 82.15Q718.55 82.15 720.41 83.96Q722.27 85.78 722.27 89.25L722.27 93.25Q722.27 96.72 720.41 98.54Q718.55 100.35 715.40 100.35M715.40 98.47Q717.67 98.47 718.92 97.11Q720.17 95.75 720.17 93.33L720.17 89.17Q720.17 86.75 718.92 85.39Q717.67 84.03 715.40 84.03Q713.15 84.03 711.90 85.39Q710.65 86.75 710.65 89.17L710.65 93.33Q710.65 95.75 711.90 97.11Q713.15 98.47 715.40 98.47M734.87 100L732.77 100L732.77 82.50L739.85 82.50Q741.47 82.50 742.71 83.06Q743.95 83.63 744.65 84.66Q745.35 85.70 745.35 87.15L745.35 87.42Q745.35 89.15 744.52 90.15Q743.70 91.15 742.57 91.50L742.57 91.85Q743.47 91.90 744.06 92.45Q744.65 93 744.65 94.13L744.65 100L742.57 100L742.57 94.38Q742.57 92.83 740.92 92.83L734.87 92.83L734.87 100M734.87 84.40L734.87 90.92L739.65 90.92Q741.35 90.92 742.30 90.09Q743.25 89.25 743.25 87.75L743.25 87.58Q743.25 86.05 742.32 85.22Q741.40 84.40 739.65 84.40L734.87 84.40M775.32 100L773.22 100L773.22 93.33L767 82.50L769.40 82.50L774.10 90.88L774.45 90.88L779.15 82.50L781.55 82.50L775.32 93.33L775.32 100M796.57 100.35Q793.45 100.35 791.59 98.54Q789.72 96.72 789.72 93.25L789.72 89.25Q789.72 85.78 791.59 83.96Q793.45 82.15 796.57 82.15Q799.72 82.15 801.59 83.96Q803.45 85.78 803.45 89.25L803.45 93.25Q803.45 96.72 801.59 98.54Q799.72 100.35 796.57 100.35M796.57 98.47Q798.85 98.47 800.10 97.11Q801.35 95.75 801.35 93.33L801.35 89.17Q801.35 86.75 800.10 85.39Q798.85 84.03 796.57 84.03Q794.32 84.03 793.07 85.39Q791.82 86.75 791.82 89.17L791.82 93.33Q791.82 95.75 793.07 97.11Q794.32 98.47 796.57 98.47M820.27 100.35Q817.35 100.35 815.59 98.78Q813.82 97.20 813.82 94.15L813.82 82.50L815.92 82.50L815.92 94.17Q815.92 96.30 817.06 97.39Q818.20 98.47 820.27 98.47Q822.37 98.47 823.51 97.39Q824.65 96.30 824.65 94.17L824.65 82.50L826.75 82.50L826.75 94.15Q826.75 97.20 824.97 98.78Q823.20 100.35 820.27 100.35M851.50 100L849.32 100L854.72 82.50L858.42 82.50L863.82 100L861.65 100L860.30 95.58L852.85 95.58L851.50 100M856.40 83.78L853.40 93.67L859.75 93.67L856.75 83.78L856.40 83.78M875.52 100L873.45 100L873.45 82.50L877.52 82.50L883.62 98.67L883.95 98.67L883.95 82.50L886.02 82.50L886.02 100L881.95 100L875.87 83.80L875.52 83.80L875.52 100M903.05 100L896.22 100L896.22 98.13L898.67 98.13L898.67 84.38L896.22 84.38L896.22 82.50L903.05 82.50Q906.50 82.50 908.39 84.25Q910.27 86 910.27 89.63L910.27 92.88Q910.27 96.53 908.39 98.26Q906.50 100 903.05 100M900.77 84.42L900.77 98.10L903.05 98.10Q905.57 98.10 906.89 96.86Q908.20 95.63 908.20 92.97L908.20 89.55Q908.20 86.90 906.89 85.66Q905.57 84.42 903.05 84.42L900.77 84.42M940.40 100L938.30 100L938.30 93.33L932.07 82.50L934.47 82.50L939.17 90.88L939.52 90.88L944.22 82.50L946.62 82.50L940.40 93.33L940.40 100M961.65 100.35Q958.52 100.35 956.66 98.54Q954.80 96.72 954.80 93.25L954.80 89.25Q954.80 85.78 956.66 83.96Q958.52 82.15 961.65 82.15Q964.80 82.15 966.66 83.96Q968.52 85.78 968.52 89.25L968.52 93.25Q968.52 96.72 966.66 98.54Q964.80 100.35 961.65 100.35M961.65 98.47Q963.92 98.47 965.17 97.11Q966.42 95.75 966.42 93.33L966.42 89.17Q966.42 86.75 965.17 85.39Q963.92 84.03 961.65 84.03Q959.40 84.03 958.15 85.39Q956.90 86.75 956.90 89.17L956.90 93.33Q956.90 95.75 958.15 97.11Q959.40 98.47 961.65 98.47M985.35 100.35Q982.42 100.35 980.66 98.78Q978.90 97.20 978.90 94.15L978.90 82.50L981 82.50L981 94.17Q981 96.30 982.14 97.39Q983.27 98.47 985.35 98.47Q987.45 98.47 988.59 97.39Q989.72 96.30 989.72 94.17L989.72 82.50L991.82 82.50L991.82 94.15Q991.82 97.20 990.05 98.78Q988.27 100.35 985.35 100.35M1004.77 100L1002.67 100L1002.67 82.50L1009.75 82.50Q1011.37 82.50 1012.61 83.06Q1013.85 83.63 1014.55 84.66Q1015.25 85.70 1015.25 87.15L1015.25 87.42Q1015.25 89.15 1014.42 90.15Q1013.60 91.15 1012.47 91.50L1012.47 91.85Q1013.37 91.90 1013.96 92.45Q1014.55 93 1014.55 94.13L1014.55 100L1012.47 100L1012.47 94.38Q1012.47 92.83 1010.82 92.83L1004.77 92.83L1004.77 100M1004.77 84.40L1004.77 90.92L1009.55 90.92Q1011.25 90.92 1012.20 90.09Q1013.15 89.25 1013.15 87.75L1013.15 87.58Q1013.15 86.05 1012.22 85.22Q1011.30 84.40 1009.55 84.40L1004.77 84.40M1039.35 100L1037.17 100L1042.57 82.50L1046.27 82.50L1051.67 100L1049.50 100L1048.15 95.58L1040.70 95.58L1039.35 100M1044.25 83.78L1041.25 93.67L1047.60 93.67L1044.60 83.78L1044.25 83.78M1067.15 100.35Q1065.20 100.35 1063.71 99.54Q1062.22 98.72 1061.39 97.15Q1060.55 95.58 1060.55 93.25L1060.55 89.25Q1060.55 85.78 1062.40 83.96Q1064.25 82.15 1067.37 82.15Q1070.47 82.15 1072.10 83.85Q1073.72 85.55 1073.72 88.40L1073.72 88.53L1071.65 88.53L1071.65 88.35Q1071.65 86.50 1070.62 85.26Q1069.60 84.03 1067.37 84.03Q1065.15 84.03 1063.90 85.39Q1062.65 86.75 1062.65 89.20L1062.65 93.30Q1062.65 95.75 1063.90 97.11Q1065.15 98.47 1067.40 98.47Q1069.60 98.47 1070.64 97.22Q1071.67 95.97 1071.67 93.90L1071.67 93.47L1066.37 93.47L1066.37 91.67L1073.72 91.67L1073.72 100L1071.82 100L1071.82 98.10L1071.47 98.10Q1071.20 98.67 1070.70 99.19Q1070.20 99.70 1069.35 100.03Q1068.50 100.35 1067.15 100.35M1095.45 100L1084.55 100L1084.55 82.50L1095.32 82.50L1095.32 84.40L1086.65 84.40L1086.65 90.25L1094.62 90.25L1094.62 92.15L1086.65 92.15L1086.65 98.10L1095.45 98.10L1095.45 100M1107.70 100L1105.62 100L1105.62 82.50L1109.70 82.50L1115.80 98.67L1116.12 98.67L1116.12 82.50L1118.20 82.50L1118.20 100L1114.12 100L1108.05 83.80L1107.70 83.80L1107.70 100M1135.62 100L1133.52 100L1133.52 84.40L1127.90 84.40L1127.90 82.50L1141.25 82.50L1141.25 84.40L1135.62 84.40L1135.62 100M1156.30 100.35Q1154.40 100.35 1152.90 99.67Q1151.40 99 1150.54 97.64Q1149.67 96.28 1149.67 94.22L1149.67 93.70L1151.75 93.70L1151.75 94.22Q1151.75 96.42 1153.01 97.47Q1154.27 98.53 1156.30 98.53Q1158.35 98.53 1159.42 97.60Q1160.50 96.67 1160.50 95.28Q1160.50 94.30 1160.01 93.72Q1159.52 93.15 1158.65 92.79Q1157.77 92.42 1156.60 92.15L1155.30 91.83Q1153.75 91.45 1152.57 90.88Q1151.40 90.30 1150.75 89.35Q1150.10 88.40 1150.10 86.92Q1150.10 85.45 1150.84 84.38Q1151.57 83.30 1152.91 82.72Q1154.25 82.15 1156 82.15Q1157.77 82.15 1159.17 82.75Q1160.57 83.35 1161.40 84.56Q1162.22 85.78 1162.22 87.55L1162.22 88.60L1160.15 88.60L1160.15 87.55Q1160.15 85.65 1158.97 84.81Q1157.80 83.97 1156 83.97Q1154.27 83.97 1153.22 84.74Q1152.17 85.50 1152.17 86.90Q1152.17 88.30 1153.15 88.92Q1154.12 89.55 1155.87 89.97L1157.17 90.30Q1158.67 90.65 1159.90 91.21Q1161.12 91.78 1161.85 92.72Q1162.57 93.67 1162.57 95.22Q1162.57 96.78 1161.80 97.92Q1161.02 99.08 1159.61 99.71Q1158.20 100.35 1156.30 100.35" fill="#9a9a9a"/></g>
</svg>
